<?xml version="1.0" encoding="utf-8"?>
<svg xmlns="http://www.w3.org/2000/svg"
     viewBox="317.6 263.7 206.4 67.9"
     preserveAspectRatio="xMinYMid meet"
     xmlns:xlink="http://www.w3.org/1999/xlink"
     xml:space="preserve">

<style type="text/css">
	.st0{fill:none;}
	.st1{fill:#164194;}
	.st2{fill:#FFED00;}
	.st3{fill:#7C7C7B;}
</style>
<rect x="317.6" y="263.7" class="st0" width="206.4" height="67.9"/>
<g>
	<g>
		<g id="EUflag_16_">
			<polygon class="st1" points="501.4,309 501.4,286.3 467.4,286.3 467.4,309 501.4,309 			"/>
		</g>
		<g>
			<polygon class="st2" points="485,289.8 486.1,289.8 485.2,290.5 485.6,291.6 484.6,290.9 483.7,291.6 484.1,290.5 483.2,289.8 
				484.3,289.8 484.6,288.7 485,289.8 			"/>
			<polygon class="st2" points="485,304.9 486.2,304.9 485.2,305.6 485.6,306.7 484.7,306 483.8,306.7 484.1,305.6 483.2,304.9 
				484.3,304.9 484.7,303.8 485,304.9 			"/>
			<polygon class="st2" points="488.8,303.9 489.9,303.9 489,304.6 489.3,305.7 488.4,305 487.5,305.7 487.9,304.6 486.9,303.9 
				488.1,303.9 488.4,302.8 488.8,303.9 			"/>
			<polygon class="st2" points="488.8,290.8 489.9,290.8 489,291.5 489.3,292.6 488.4,291.9 487.5,292.6 487.9,291.5 486.9,290.8 
				488.1,290.8 488.4,289.7 488.8,290.8 			"/>
			<polygon class="st2" points="491.5,293.6 492.7,293.6 491.8,294.3 492.1,295.4 491.2,294.7 490.3,295.4 490.6,294.3 489.7,293.6 
				490.9,293.6 491.2,292.5 491.5,293.6 			"/>
			<polygon class="st2" points="491.5,301.2 492.7,301.2 491.8,301.9 492.1,302.9 491.2,302.3 490.3,302.9 490.6,301.9 489.7,301.2 
				490.9,301.2 491.2,300.1 491.5,301.2 			"/>
			<polygon class="st2" points="492.6,297.3 493.7,297.3 492.8,298 493.1,299.1 492.2,298.4 491.3,299.1 491.7,298 490.8,297.3 
				491.9,297.3 492.2,296.3 492.6,297.3 			"/>
			<polygon class="st2" points="481.2,290.8 482.3,290.8 481.4,291.5 481.7,292.6 480.8,291.9 479.9,292.6 480.3,291.5 479.4,290.8 
				480.5,290.8 480.8,289.7 481.2,290.8 			"/>
			<polygon class="st2" points="478.5,293.6 479.6,293.6 478.7,294.3 479,295.4 478.1,294.7 477.2,295.4 477.6,294.3 476.7,293.6 
				477.8,293.6 478.1,292.5 478.5,293.6 			"/>
			<polygon class="st2" points="477.5,297.3 478.6,297.3 477.7,298 478,299.1 477.1,298.4 476.2,299.1 476.6,298 475.7,297.3 
				476.8,297.3 477.1,296.3 477.5,297.3 			"/>
			<polygon class="st2" points="478.5,301.2 479.6,301.2 478.7,301.9 479,303 478.1,302.3 477.2,303 477.6,301.9 476.7,301.2 
				477.8,301.2 478.1,300.1 478.5,301.2 			"/>
			<polygon class="st2" points="481.2,303.9 482.3,303.9 481.4,304.6 481.8,305.7 480.9,305 480,305.7 480.3,304.6 479.4,303.9 
				480.5,303.9 480.9,302.9 481.2,303.9 			"/>
		</g>
	</g>
	<g>
		<path class="st3" d="M337.3,304.5c0.7,0.7,1.8,1.1,3.1,1.1c1,0,1.8-0.2,2.5-0.7s1.1-1,1.3-1.5h4.2c-0.7,2.1-1.7,3.6-3.1,4.5
			c-1.4,0.9-3.1,1.4-5.1,1.4c-1.4,0-2.6-0.2-3.7-0.7c-1.1-0.4-2-1.1-2.8-1.9s-1.4-1.8-1.8-2.9c-0.4-1.1-0.6-2.4-0.6-3.7
			c0-1.3,0.2-2.5,0.6-3.7c0.4-1.1,1-2.1,1.8-2.9c0.8-0.8,1.7-1.5,2.8-1.9c1.1-0.5,2.3-0.7,3.6-0.7c1.5,0,2.8,0.3,3.9,0.9
			s2,1.4,2.7,2.3c0.7,1,1.2,2.1,1.5,3.3c0.3,1.2,0.4,2.5,0.3,3.9h-12.6C336.2,302.7,336.6,303.8,337.3,304.5z M342.8,295.3
			c-0.6-0.6-1.5-0.9-2.6-0.9c-0.8,0-1.4,0.1-1.9,0.4c-0.5,0.3-0.9,0.6-1.2,1c-0.3,0.4-0.5,0.8-0.6,1.2c-0.1,0.4-0.2,0.8-0.2,1.2h7.8
			C343.7,296.9,343.3,296,342.8,295.3z M462.6,291v3.9h-3.1v8.2c0,0.8,0,1.4,0.3,1.6c0.3,0.3,0.8,0.4,1.6,0.4c0.3,0,0.4,0,0.7,0
			c0.2,0,0.6-0.1,0.6-0.1v3.7c0,0.1-0.8,0.1-1.3,0.1c-0.5,0-0.9,0-1.4,0c-0.7,0-1.4,0-2.1-0.2c-0.7-0.1-1.2-0.3-1.7-0.6
			c-0.5-0.3-0.8-0.7-1.1-1.2c-0.3-0.5-0.3-1.2-0.3-2.1V295h-3.1V291h3.1v-4.7h4.7v4.7H462.6z M443.9,300.7c-0.3,0.1-0.6,0.2-0.9,0.2
			c-0.3,0.1-0.7,0.1-1.1,0.2c-0.4,0.1-0.8,0.1-1.1,0.2c-0.4,0.1-0.7,0.1-1,0.3c-0.4,0.1-0.7,0.3-0.9,0.5c-0.3,0.2-0.5,0.4-0.6,0.7
			c-0.2,0.3-0.2,0.7-0.2,1.1c0,0.4,0.1,0.8,0.2,1.1c0.2,0.3,0.4,0.5,0.6,0.7c0.3,0.2,0.6,0.3,0.9,0.4c0.4,0.1,0.7,0.1,1.1,0.1
			c0.9,0,1.7-0.1,2.2-0.5c0.5-0.3,0.9-0.7,1.1-1.1c0.2-0.4,0.3-0.9,0.4-1.3c0.1-0.5,0-0.8,0-1.1v-1.8
			C444.6,300.4,444.2,300.6,443.9,300.7 M434.6,293.8c0.5-0.7,1.1-1.3,1.9-1.7c0.8-0.5,1.6-0.7,2.6-0.9c0.9-0.2,1.9-0.3,2.9-0.3
			c0.9,0,1.8,0.1,2.7,0.2c0.9,0.1,1.7,0.4,2.5,0.7c0.7,0.4,1.2,0.9,1.7,1.5c0.5,0.6,0.6,1.5,0.6,2.5v9.1c0,0.8,0.2,1.5,0.3,2.2
			c0.1,0.7,0.3,1.3,0.5,1.6l-4.8,0c-0.1-0.3-0.1-0.5-0.2-0.8c-0.1-0.3-0.1-0.6-0.1-0.9c-0.8,0.8-1.7,1.3-2.7,1.6
			c-1,0.3-2.1,0.5-3.2,0.5c-0.8,0-1.6-0.1-2.3-0.3c-0.7-0.2-1.3-0.5-1.9-0.9c-0.5-0.4-1-1-1.3-1.6c-0.3-0.7-0.4-1.4-0.4-2.3
			c0-1,0.2-1.8,0.5-2.4c0.3-0.6,0.8-1.2,1.3-1.5c0.5-0.4,1.2-0.7,1.9-0.9c0.7-0.2,1.4-0.3,2.1-0.5c0.7-0.1,1.4-0.2,2.1-0.3
			c0.7-0.1,1.3-0.2,1.9-0.3c0.5-0.1,1-0.3,1.3-0.6c0.3-0.3,0.5-0.6,0.4-1.1c0-0.5-0.1-0.9-0.3-1.2c-0.2-0.3-0.4-0.5-0.7-0.7
			c-0.3-0.2-0.6-0.3-1-0.3c-0.4-0.1-0.8-0.1-1.2-0.1c-0.9,0-1.7,0.1-2.2,0.5c-0.5,0.4-0.8,1.1-0.9,1.9h-4.8
			C433.9,295.7,434.1,294.6,434.6,293.8 M431.3,291v3.9h-3.9v8.2c0,0.8,0.3,1.4,0.5,1.6c0.3,0.3,0.9,0.4,1.7,0.4c0.3,0,0.6,0,0.9,0
			c0.3,0,0.8-0.1,0.8-0.1v3.7c-0.8,0.1-0.9,0.1-1.4,0.1c-0.5,0-1,0-1.5,0c-0.7,0-1.5,0-2.1-0.2c-0.7-0.1-1.3-0.3-1.8-0.6
			c-0.5-0.3-1-0.7-1.3-1.2c-0.3-0.5-0.5-1.2-0.5-2.1V295h-2.3V291h2.3v-4.7h4.7v4.7H431.3z M407.5,304.3c0.2,0.4,0.5,0.8,0.8,1
			c0.3,0.2,0.7,0.5,1.2,0.6c0.4,0.1,0.9,0.2,1.3,0.2c0.3,0,0.7,0,1.1-0.1c0.4-0.1,0.7-0.2,1-0.4c0.3-0.2,0.6-0.4,0.8-0.7
			c0.2-0.3,0.3-0.6,0.3-1.1c0-0.7-0.5-1.3-1.4-1.6c-1-0.4-2.3-0.7-4-1.1c-0.7-0.2-1.4-0.4-2-0.6c-0.7-0.2-1.2-0.5-1.8-0.8
			c-0.5-0.4-0.9-0.8-1.2-1.3c-0.3-0.5-0.5-1.2-0.5-1.9c0-1.1,0.2-2,0.7-2.7c0.4-0.7,1-1.3,1.7-1.7c0.7-0.4,1.5-0.7,2.4-0.9
			c0.9-0.2,1.8-0.2,2.8-0.2c0.9,0,1.9,0.1,2.7,0.3c0.9,0.2,1.7,0.5,2.4,0.9c0.7,0.4,1.3,1,1.7,1.7c0.5,0.7,0.7,1.9,0.8,2.7h-4.5
			c-0.1-0.8-0.4-1.6-1-1.9c-0.6-0.3-1.4-0.5-2.2-0.5c-0.3,0-0.6,0-0.9,0c-0.3,0-0.6,0.1-0.9,0.2c-0.3,0.1-0.5,0.3-0.7,0.5
			c-0.2,0.2-0.3,0.5-0.3,0.9c0,0.4,0.2,0.8,0.5,1c0.3,0.3,0.7,0.5,1.2,0.7c0.5,0.2,1.1,0.3,1.7,0.5c0.6,0.1,1.3,0.3,2,0.4
			c0.7,0.2,1.4,0.3,2,0.6c0.7,0.2,1.2,0.5,1.8,0.9c0.5,0.4,0.9,0.8,1.2,1.4c0.3,0.6,0.5,1.2,0.5,2c0,1.1-0.2,2.1-0.7,2.9
			c-0.5,0.8-1.1,1.4-1.8,1.9c-0.7,0.5-1.6,0.8-2.5,1c-1,0.2-1.9,0.3-2.9,0.3c-1,0-2-0.1-2.9-0.3c-1-0.2-1.8-0.5-2.6-1
			c-0.7-0.5-1.4-1.3-1.8-2c-0.5-0.8-0.7-1.5-0.8-3.1h4.5C407.2,303.6,407.3,303.9,407.5,304.3 M383.7,296.3c0.4-1.1,1-2.1,1.8-2.9
			c0.8-0.8,1.7-1.4,2.8-1.8c1.1-0.4,2.3-0.6,3.7-0.6c1.4,0,2.6,0.2,3.7,0.6c1.1,0.4,2,1.1,2.8,1.8c0.8,0.8,1.4,1.8,1.8,2.9
			c0.4,1.1,0.6,2.4,0.6,3.8c0,1.4-0.2,2.6-0.6,3.8c-0.4,1.1-1,2.1-1.8,2.9c-0.8,0.8-1.7,1.4-2.8,1.8c-1.1,0.4-2.4,0.6-3.7,0.6
			c-1.4,0-2.6-0.2-3.7-0.6c-1.1-0.4-2-1-2.8-1.8c-0.8-0.8-1.4-1.8-1.8-2.9c-0.4-1.1-0.6-2.4-0.6-3.8
			C383.1,298.7,383.3,297.4,383.7,296.3 M388.1,302.1c0.1,0.7,0.4,1.3,0.7,1.8c0.3,0.5,0.8,0.9,1.3,1.3c0.5,0.3,1.2,0.5,2,0.5
			c0.8,0,1.5-0.2,2-0.5c0.5-0.3,1-0.7,1.3-1.3c0.3-0.5,0.6-1.1,0.7-1.8c0.1-0.7,0.2-1.3,0.2-2c0-0.7-0.1-1.4-0.2-2.1
			c-0.1-0.7-0.4-1.3-0.7-1.8c-0.3-0.5-0.8-0.9-1.3-1.3c-0.6-0.3-1.2-0.5-2-0.5c-0.8,0-1.5,0.2-2,0.5c-0.5,0.3-1,0.8-1.3,1.3
			c-0.3,0.5-0.5,1.1-0.7,1.8c-0.1,0.7-0.2,1.4-0.2,2.1C387.9,300.8,387.9,301.5,388.1,302.1 M376.5,291v3.9h-0.1
			c0.2-0.8,0.5-1.2,0.9-1.7c0.4-0.5,0.8-0.9,1.3-1.3c0.5-0.3,1-0.6,1.6-0.8c0.6-0.2,1.1-0.3,1.6-0.3c0.3,0,0.9,0,0.9,0.1v4.4
			c0,0-0.4-0.1-0.7-0.1c-0.3,0-0.6,0-0.9,0c-0.9,0-1.6,0.1-2.2,0.4c-0.6,0.3-1.1,0.7-1.4,1.2c-0.4,0.5-0.6,1.1-0.8,1.8
			c-0.2,0.7-0.2,1.4-0.2,2.2v8.1h-4.7v-18H376.5z M363.2,309v-2.3h0c-0.6,0.8-1.4,1.6-2.4,2c-1,0.4-1.9,0.6-3,0.6
			c-1.3,0-2.3-0.2-3.1-0.5c-0.8-0.3-1.5-0.8-1.9-1.4c-0.5-0.6-0.8-1.4-1-2.3c-0.2-0.9-0.3-1.9-0.3-3V291h4.7v10.2
			c0,1.4,0.3,2.5,0.8,3.2c0.5,0.7,1.3,1.1,2.4,1.1c1.3,0,2.3-0.4,2.9-1.2c0.6-0.8,1-2.1,1-3.8V291h4.7v18H363.2z"/>
	</g>
</g>
</svg>
